<?xml version="1.0" encoding="UTF-8" standalone="no"?>
<svg
   xmlns:dc="http://purl.org/dc/elements/1.1/"
   xmlns:cc="http://creativecommons.org/ns#"
   xmlns:rdf="http://www.w3.org/1999/02/22-rdf-syntax-ns#"
   xmlns:svg="http://www.w3.org/2000/svg"
   xmlns="http://www.w3.org/2000/svg"
   xmlns:sodipodi="http://sodipodi.sourceforge.net/DTD/sodipodi-0.dtd"
   xmlns:inkscape="http://www.inkscape.org/namespaces/inkscape"
   sodipodi:docname="app_menu_icon.svg"
   inkscape:version="1.0rc1 (09960d6, 2020-04-09)"
   width="70"
   height="70"
   viewBox="0 0 70 70"
   version="1.1"
   id="SVGRoot"
   inkscape:export-filename="/Users/paul/var/HappyHour/app_icon72.png"
   inkscape:export-xdpi="98.742859"
   inkscape:export-ydpi="98.742859">
  <defs
     id="defs12" />
  <sodipodi:namedview
     inkscape:window-maximized="0"
     inkscape:window-y="45"
     inkscape:window-x="86"
     inkscape:window-height="943"
     inkscape:window-width="1252"
     showgrid="true"
     inkscape:document-rotation="0"
     inkscape:current-layer="layer1"
     inkscape:document-units="px"
     inkscape:cy="39.359037"
     inkscape:cx="41.537165"
     inkscape:zoom="6"
     inkscape:pageshadow="2"
     inkscape:pageopacity="0"
     borderopacity="1.0"
     bordercolor="#666666"
     pagecolor="#9bffff"
     id="base"
     inkscape:pagecheckerboard="false"
     inkscape:showpageshadow="false"
     borderlayer="false">
    <inkscape:grid
       type="xygrid"
       id="grid21"
       originx="5"
       originy="0" />
  </sodipodi:namedview>
  <metadata
     id="metadata15">
    <rdf:RDF>
      <cc:Work
         rdf:about="">
        <dc:format>image/svg+xml</dc:format>
        <dc:type
           rdf:resource="http://purl.org/dc/dcmitype/StillImage" />
        <dc:title></dc:title>
      </cc:Work>
    </rdf:RDF>
  </metadata>
  <g
     id="layer1"
     inkscape:groupmode="layer"
     inkscape:label="Layer 1"
     style="opacity:1"
     transform="translate(5)">
    <path
       inkscape:connector-curvature="0"
       d="m 40,15 v 5 A 10,15 0 0 1 50,35 10,15 0 0 1 40,50 v 5 A 15,20 0 0 0 55,35.216797 15,20 0 0 0 55,35 15,20 0 0 0 40,15 Z"
       style="fill:#808080"
       id="path32" />
    <path
       transform="translate(-5)"
       d="M 20 10 C 17.23 10 15 12.23 15 15 L 15 55 C 15 57.77 17.23 60 20 60 L 45 60 C 47.77 60 50 57.77 50 55 L 50 15 C 50 12.23 47.77 10 45 10 L 20 10 z M 20 15 L 45 15 L 45 55 L 20 55 L 20 15 z "
       style="fill:#808080"
       id="rect28" />
    <rect
       y="20"
       x="20"
       height="30"
       width="5"
       id="rect38"
       style="fill:#999999;fill-opacity:1" />
    <rect
       y="20"
       x="30"
       height="30"
       width="5"
       id="rect40"
       style="fill:#999999;fill-opacity:1" />
  </g>
</svg>
